<svg xmlns="http://www.w3.org/2000/svg" width="256" height="256"><path fill-opacity=".016" d="M0 128.004v128.004l128.25-.254 128.25-.254.254-127.75L257.008 0H0v128.004m.485.496c0 70.4.119 99.053.265 63.672.146-35.38.146-92.98 0-128C.604 29.153.485 58.1.485 128.5" fill="#1976D2" fill-rule="evenodd"/><path fill-opacity=".291" d="M19 90.784v90.783l12.75 9.435a60707.529 60707.529 0 0 1 75.678 56.126L119.355 256h15.438l20.029-14.75L205.409 204l30.556-22.5.018-90.75L236 0H19v90.784" fill="#1976D2" fill-rule="evenodd"/><path fill-opacity=".623" d="M19.671.662c-.369.369-.665 39.634-.658 87.255l.013 86.583 8.737 6.478c4.805 3.563 29.09 21.675 53.967 40.25C106.606 239.803 127.411 255 127.963 255c.553 0 25.089-18.038 54.526-40.085l53.522-40.085-.256-87.165L235.5.5 127.921.246C68.753.106 20.04.293 19.671.662m27.323 13.212C35.149 17.761 30.153 27.073 29.489 46.5c-.537 15.695 2.162 27.226 7.81 33.369 7.531 8.193 25.871 8.193 33.402 0 5.695-6.194 9.018-21.95 7.776-36.869-1.236-14.844-5.198-23.287-12.732-27.13-4.524-2.308-14.548-3.375-18.751-1.996m67.35.109c-5.884 1.247-11.658 4.409-15.758 8.631-12.959 13.344-13.982 44.798-1.842 56.628C101.75 84.12 106.626 86 114.272 86c17.696 0 28.959-16.225 23.133-33.325-1.853-5.437-7.87-11.154-13.34-12.673-4.943-1.374-13.84-1.173-18.279.412-2.042.729-3.905 1.134-4.139.9-1.213-1.213 2.342-8.33 5.987-11.987 4.534-4.548 10.005-6.134 17.18-4.98 8.24 1.325 7.658 1.598 7.996-3.737.171-2.689-.125-5.325-.657-5.857-1.343-1.343-12.777-1.837-17.809-.77M49.207 24.497c-2.366 1.037-3.896 2.788-5.438 6.223-1.851 4.127-2.152 6.694-2.201 18.78-.066 16.293 1.531 22.466 6.473 25.021 6.527 3.375 12.912 1.236 16.194-5.425 2.042-4.143 2.263-6.025 2.243-19.096-.018-12.652-.293-15.094-2.155-19.164-3.036-6.634-8.864-9.078-15.116-6.339M105.5 50.213c-5.369 1.889-5.775 2.635-5.03 9.247.873 7.75 2.924 12.002 7.004 14.524 6.283 3.883 14.88 1.691 17.857-4.552 3.531-7.405 1.299-15.956-4.938-18.916-3.633-1.724-10.459-1.863-14.893-.303m92.884 21.619c-11.614 5.317-26.577 12.121-33.25 15.119C158.46 89.948 153 92.805 153 93.299c0 .494 1.346 2.156 2.992 3.693l2.992 2.795-2.577.647c-1.417.356-3.551.374-4.742.041-1.714-.48-1.852-.387-.665.444 2.735 1.915 5.7 1.127 12.134-3.225 5.342-3.613 8.576-4.852 20.11-7.705 14.965-3.703 16.673-3.53 14.763 1.493-.587 1.544-1.543 6.224-2.124 10.401-.581 4.178-1.665 9.053-2.409 10.834-1.421 3.401-6.661 7.273-9.851 7.279-3.092.006-1.714 9.002 2.237 14.608 1.727 2.45 3.14 4.723 3.14 5.05 0 .328-1.353.325-3.008-.006-2.913-.582-2.962-.531-1.561 1.625.795 1.225 2 5.256 2.677 8.959 1.41 7.709 2.39 7.687 5.753-.13 1.348-3.135 2.318-8.224 2.757-14.469.372-5.298 1.086-9.633 1.585-9.633.499 0 2.08 2.588 3.514 5.75 2.005 4.425 2.71 7.858 3.059 14.896.552 11.127-.969 16.458-6.945 24.354-2.29 3.025-3.399 4.871-2.466 4.102 1.477-1.217 1.884-1.152 3.134.5.791 1.044 1.459 2.123 1.485 2.398.025.275.438 1.118.917 1.873.672 1.062 3.164-.364 10.984-6.286l10.115-7.66v-51.964c0-28.579-.338-51.926-.75-51.881-.412.045-10.252 4.432-21.866 9.75m-15.456 22.216c-9.01 2.136-14.828 5.054-16.961 8.506-2.235 3.615-3.967 4.472-3.967 1.962 0-1.277-.488-1.251-3.497.184-3.071 1.464-4.274 1.514-9.851.405-4.924-.979-7.327-1-10.681-.097-2.381.641-6.192.886-8.47.544-4.859-.728-11.381 1.716-7.697 2.886 1.98.628 9.624 8.42 11.887 12.116 1.059 1.73 1.198 1.529 1.25-1.804.093-5.905 3.071-4.309 5.581 2.991 1.642 4.777 3.314 4.777 4.956 0 2.52-7.328 5.235-8.752 5.712-2.996l.31 3.745 3.22-4.995c3.108-4.821 5.367-6.705 13.656-11.387 4.549-2.57 5.446-2.125 3.912 1.939l-1.121 2.97 2.721-1.937c1.496-1.065 3.586-3.544 4.643-5.509 2.171-4.03 3.414-4.498 4.179-1.571.522 1.996 2.29 2.827 2.29 1.077 0-.508 1.572-2.983 3.493-5.5L191.987 93l-2.744.1c-1.508.056-4.35.482-6.315.948m1.317 14.202c-.55.688-1.301 2.232-1.668 3.432-.368 1.2-1.885 2.667-3.373 3.26-2.573 1.025-2.534 1.052.796.554 3.915-.585 6-2.736 6-6.187 0-2.629-.337-2.832-1.755-1.059M104 115.139c0 .473 1.125.861 2.5.861s2.5-.173 2.5-.383c0-.211-1.125-.599-2.5-.862s-2.5-.09-2.5.384m6.75 1.523c.688.278 1.813.278 2.5 0 .688-.277.125-.504-1.25-.504s-1.937.227-1.25.504M85 123.03c-5.775 2.653-19.5 8.876-30.5 13.83l-20 9.008-.282 9.818-.282 9.819 24.282 18.099c40.811 30.42 67.219 49.982 68.539 50.771.775.464 4.466-1.565 9.634-5.296 6.784-4.898 8.462-6.627 8.825-9.095.293-1.999.108-2.708-.538-2.062-.586.586-1.644.632-2.614.112-1.313-.703-1.624-.372-1.597 1.699.044 3.411-1.843 3.933-3.228.893-.669-1.47-2.611-2.92-4.922-3.678-4.696-1.539-8.459-3.908-7.829-4.928.259-.419 1.717-1.017 3.241-1.329 1.524-.312 3.671-1.292 4.771-2.177 1.848-1.489 1.758-1.494-1.2-.062-4.767 2.306-9.861 2.013-11.743-.675-1.977-2.822-2.006-6.667-.057-7.415.825-.317 1.5-1.264 1.5-2.104 0-1.032-.649-.703-2 1.015-1.1 1.398-2 3.865-2 5.482 0 3.074-3.482 8.096-4.74 6.838-.401-.4-.899-4.108-1.107-8.239l-.38-7.511-2.814 2.696c-1.547 1.483-3.379 4.061-4.07 5.73-1.111 2.681-1.343 2.813-2.003 1.132-1.222-3.116-.981-10.238.464-13.695l1.349-3.23-3.859.368c-4.326.412-8.84-.457-8.84-1.703 0-.451 1.125-1.333 2.5-1.959C97.485 183.366 96.412 182 91 182c-6.076 0-6.339-1.53-1.356-7.893.169-.215.994.177 1.832.873 2.447 2.031 1.764.649-1.472-2.975-6.05-6.777-7.507-11.356-7.477-23.505.023-9.783.321-11.636 2.695-16.75 1.467-3.162 3.076-5.75 3.575-5.75.499 0 1.213 4.335 1.585 9.633.439 6.245 1.409 11.334 2.757 14.469 3.363 7.817 4.343 7.839 5.753.13.677-3.703 1.882-7.734 2.677-8.959 1.401-2.156 1.352-2.207-1.561-1.625-1.655.331-3.008.334-3.008.006 0-.327 1.399-2.581 3.11-5.007 1.963-2.786 3.3-6.104 3.627-9.006.468-4.149.288-4.68-1.86-5.484-5.447-2.04-6.612-1.841-16.877 2.873m33 5.369c0 4.074 1.736 6.601 4.535 6.601 3.216 0 3.074-.716-1.077-5.417L118 125.667v2.732m46.25 1.577c-3.9 4.667-3.955 5.024-.785 5.024 2.849 0 4.809-2.934 4.347-6.506-.3-2.314-.438-2.257-3.562 1.482m8.25 2.91c0 2.158.301 3.737.67 3.509.628-.388 2.711 1.951 5.564 6.247.995 1.498 1.007 1.277.059-1.142-.646-1.65-2.036-3.979-3.089-5.176-1.052-1.197-1.656-2.593-1.341-3.103.315-.509.025-1.676-.645-2.592-1.033-1.413-1.218-1.071-1.218 2.257m-60.618-1.636c-.066.688-.045 1.649.045 2.137s-.67 1.838-1.691 3c-1.02 1.162-2.383 3.463-3.029 5.113-.948 2.419-.936 2.64.059 1.142 2.899-4.365 4.941-6.632 5.605-6.222.391.242.531-1.104.311-2.99-.4-3.419-1.076-4.553-1.3-2.18m19.875 2.5c2.792 2.668 4.512 2.836 6.351.62 1.219-1.469 1.026-1.558-1.945-.906-2.213.486-3.867.282-5.029-.62-.953-.739-.672-.332.623.906m23.18-1.174c-.962 1.159-2.238 1.403-4.812.92-3.116-.585-3.359-.483-2.192.923.721.87 1.907 1.581 2.634 1.581 1.301 0 7.528-4.907 6.305-4.968-.345-.018-1.216.677-1.935 1.544m42.608 8.146c-.403 3.728-.756 8.016-.783 9.528-.028 1.552-.61 2.75-1.338 2.75-.709 0-1.564.865-1.899 1.922-.846 2.665-8.033 8.974-12.21 10.72-1.905.796-6.279 1.71-9.719 2.031l-6.256.584 1.572 4.372c1.435 3.99 1.867 4.371 4.955 4.371 3.275 0 3.364-.104 2.776-3.25-.56-2.993-.493-3.1.839-1.358.795 1.04 1.597 2.344 1.781 2.896.425 1.275 12.069-3.892 14.282-6.338.933-1.031 1.32-2.36.889-3.057-.524-.848-.263-1.041.84-.618 2.071.795 5.323-5.726 6.776-13.59.928-5.018.045-15.924-1.407-17.375-.201-.201-.695 2.685-1.098 6.412M86.46 137.5c-1.403 4.728-.964 14.524.901 20.109 1.87 5.599 8.192 13.777 10.088 13.049.657-.252 1.729.397 2.381 1.442 1.6 2.562 3.776 2.398 4.662-.35.687-2.134.758-2.097 1.369.705.677 3.112 2.9 4.255 8.647 4.445 2.676.089 3.181-.382 4.58-4.271l1.572-4.372-6.256-.584c-7.854-.733-12.088-2.49-17.256-7.158-2.24-2.024-4.534-3.394-5.099-3.045-.604.373-.786.009-.443-.886.321-.836-.193-3.554-1.142-6.039-.949-2.485-2.038-7.111-2.42-10.281-.646-5.369-.755-5.558-1.584-2.764m54.069-.547c-.324.524-1.078 4.912-1.676 9.75-1.032 8.348-2.816 13.297-4.795 13.297-.513 0-.476-1.523.085-3.556.54-1.956.811-4.319.602-5.25-.209-.932-.994.937-1.743 4.152-.885 3.795-2.653 7.479-5.038 10.5-4.922 6.234-6.196 8.849-5.452 11.192.909 2.865 1.973 2.393 2.089-.926.125-3.586 3.682-8.706 7.78-11.197 1.707-1.039 4.254-3.582 5.66-5.652 3.414-5.027 6.48-5.046 9.911-.059 1.401 2.037 4.082 4.737 5.956 6 4.619 3.112 7.349 7.024 7.482 10.719.125 3.484 1.17 4.039 2.098 1.115.736-2.32-.509-4.858-5.452-11.111-2.376-3.006-4.128-6.676-5.024-10.521-.757-3.248-1.548-5.144-1.757-4.212-.209.931.07 3.322.619 5.312.749 2.713.702 3.522-.187 3.232-2.036-.662-3.559-5.029-4.28-12.269-.381-3.833-1.068-7.981-1.525-9.219-.841-2.274-4.24-3.098-5.353-1.297m1.471 4.488c0 2.443.45 4.719 1 5.059.616.381 1-1.323 1-4.441 0-2.782-.45-5.059-1-5.059s-1 1.998-1 4.441m-19.364-1.935c-1.576.822-3.826 1.496-5 1.498-3.184.005-8.334 3.511-10.059 6.847-.836 1.616-1.749 4.899-2.029 7.294-.437 3.731-.388 3.893.34 1.13.841-3.195 3.699-8.275 4.654-8.275.273 0 .226 1.076-.104 2.391s-.144 2.673.413 3.017c.655.405.509 1.592-.413 3.359-1.586 3.04-1.914 7.233-.566 7.233.48 0 1.152-1.751 1.495-3.892.438-2.743 1.666-4.808 4.162-7 4.023-3.531 5.126-3.739 8.248-1.551 2.32 1.624 3.074.694 1.065-1.315-.876-.876-.84-1.539.149-2.731 1.16-1.398 1.008-1.461-1.349-.565-1.461.555-4.052 1.732-5.76 2.615-2.372 1.227-3.005 1.291-2.684.272.232-.733 3.207-2.82 6.611-4.638 4.333-2.313 6.191-3.889 6.191-5.25 0-2.328-1.507-2.451-5.364-.439m35.364.439c0 1.361 1.858 2.937 6.191 5.25 3.404 1.818 6.379 3.905 6.611 4.638.321 1.019-.312.955-2.684-.272-1.708-.883-4.299-2.06-5.76-2.615-2.357-.896-2.509-.833-1.349.565.989 1.192 1.025 1.855.149 2.731-.637.637-1.158 1.743-1.158 2.458 0 .833.718.582 2-.7 2.733-2.733 4.335-2.523 8.471 1.108 2.496 2.192 3.724 4.257 4.162 7 .343 2.141 1.015 3.892 1.495 3.892 1.364 0 1.024-3.805-.624-6.993-1.031-1.992-1.161-3.101-.419-3.559.612-.379.799-1.774.433-3.232-1.169-4.658 2.332-.494 3.92 4.662.976 3.171 1.431 3.837 1.448 2.122.035-3.372-2.296-9.69-4.454-12.075-.967-1.068-3.597-2.445-5.845-3.059-2.248-.615-5.505-1.736-7.238-2.492-4.244-1.85-5.349-1.732-5.349.571m-42.25 17.13c.688.729 1.25 2.81 1.25 4.625 0 3.348 1.606 4.491 2.615 1.861.72-1.877-1.691-6.786-3.615-7.362-1.211-.362-1.259-.193-.25.876m52.528.175c-1.57 2.029-2.256 4.643-1.64 6.25 1.013 2.638 2.362 1.609 2.362-1.8 0-1.815.54-3.84 1.2-4.5.782-.782.824-1.2.122-1.2-.592 0-1.512.563-2.044 1.25m-36.205 15.385c-2.247 2.856-2.383 3.393-1.466 5.783.657 1.713 5.393 2.224 5.393.582 0-.55-.9-1-2-1-2.435 0-2.638-2.645-.443-5.777 2.173-3.104 1.032-2.787-1.484.412m20.225-.662c2.325 3.376 2.194 6.027-.298 6.027-1.1 0-2 .45-2 1s1.095 1 2.433 1c4.387 0 4.339-5.516-.081-9.082-1.669-1.347-1.672-1.295-.054 1.055M190 182.965c0 .53.895 1.444 1.99 2.03 1.52.813 2.583.676 4.5-.58 1.38-.905 2.51-1.818 2.51-2.03 0-.212-2.025-.385-4.5-.385s-4.5.434-4.5.965m-62.795 2.846c-1.262.971-2.002 2.059-1.644 2.417.359.358 1.572-.206 2.697-1.254 2.322-2.163 3.918-1.75 3.117.808-.437 1.394-.235 1.345 1.07-.26 1.487-1.828 1.474-2.03-.168-2.679-2.511-.993-2.529-.989-5.072.968m26.518-.968c-1.642.649-1.655.851-.168 2.679 1.305 1.605 1.507 1.654 1.07.26-.808-2.58.802-2.964 3.171-.758 1.154 1.076 2.343 1.559 2.643 1.075.443-.718-3.663-4.273-4.654-4.029-.157.039-1.084.387-2.062.773m29.538 5.831c.808 1.772 1.402 2.041 2.825 1.28 3.154-1.688 2.997-2.726-.475-3.131-3.179-.371-3.314-.265-2.35 1.851m-59.916 7.303c.823 4.111.967 4.269 3.502 3.854 1.874-.307 1.796-.58-1.079-3.782l-3.098-3.45.675 3.378m11.67-2.227c.009.412.434 1.412.946 2.221 1.152 1.822 2.504.682 1.694-1.428-.598-1.558-2.668-2.18-2.64-.793m4.985.691c0 .857.45 1.559 1 1.559s1-.423 1-.941-.45-1.219-1-1.559c-.55-.34-1 .084-1 .941m4.583-.575c-.431.697-.513 1.537-.183 1.867.895.895 1.871-.421 1.387-1.871-.338-1.016-.574-1.016-1.204.004m3.762.677c-.81 2.11.542 3.25 1.694 1.428 1.224-1.936 1.2-2.971-.07-2.971-.568 0-1.298.694-1.624 1.543m11.307 2.113L156.803 202h2.519c1.999 0 2.658-.634 3.194-3.072.371-1.689.519-3.194.329-3.344-.19-.15-1.627 1.232-3.193 3.072M175 198c0 1.867.267 2.133 1.2 1.2.933-.933.933-1.467 0-2.4-.933-.933-1.2-.667-1.2 1.2m-44 .417c0 .87.713 1.583 1.583 1.583.871 0 1.406-.534 1.188-1.187-.618-1.855-2.771-2.162-2.771-.396m21.667-.75c-1.151 1.15-.729 2.333.833 2.333.825 0 1.5-.675 1.5-1.5 0-1.562-1.183-1.984-2.333-.833m12.333.591c0 .84.675 1.787 1.5 2.104.825.316 1.552 1.602 1.616 2.857.086 1.692.234 1.83.573.532.252-.962-.476-2.936-1.616-4.385-1.376-1.75-2.073-2.122-2.073-1.108m-36 4.874c-1.375.553-3.75.826-5.277.606-1.694-.244-2.638.022-2.422.681.626 1.904 4.445 1.761 8.378-.315 4.005-2.113 3.6-2.693-.679-.972m27.321.896c3.846 2.106 7.742 2.326 8.351.472.18-.55-1.359-1.006-3.422-1.013-2.062-.008-4.875-.36-6.25-.782-1.412-.434-.837.142 1.321 1.323M152 207.439c0 .919 5.859 3.563 7.7 3.475 1.197-.057.943-.346-.758-.862-1.408-.427-3.545-1.304-4.75-1.949-1.206-.646-2.192-.944-2.192-.664" fill="#1976D2" fill-rule="evenodd"/><path fill-opacity=".97" d="M20 87.779v86.78l20.75 15.432a26407.937 26407.937 0 0 1 53.938 40.284l33.188 24.852 53.562-40.053L235 175.022V1H20v86.779m23.5-73.122c-9.879 5.192-13.588 13.281-14.273 31.134-.648 16.889 1.79 27.917 7.64 34.565 7.218 8.203 27.048 8.203 34.266 0 5.85-6.648 8.288-17.676 7.64-34.565-.687-17.906-5.107-27.496-14.491-31.439-4.444-1.867-16.999-1.683-20.782.305m68.5-.722c-9.333 2.849-17.407 10.44-21.184 19.918-1.937 4.858-2.256 7.533-2.284 19.147-.028 12.02.221 14.048 2.272 18.5 5.524 11.99 16.284 17.284 29.539 14.533 6.846-1.422 14.555-7.82 17.108-14.202 2.493-6.23 2.207-15.938-.638-21.671-5.315-10.708-20.181-15.013-33.213-9.618-1.672.693-1.817.46-1.213-1.947 2.661-10.604 12.141-15.425 25.863-13.154l4.75.786v-6.006c0-4.555-.382-6.154-1.582-6.614-2.192-.841-16.372-.602-19.418.328M48.217 25.561C43.913 28.575 42.7 32.704 42.212 46 41.405 68.006 44.248 75 54 75c9.733 0 12.542-6.89 11.804-28.948C65.241 29.243 62.435 24 54 24c-1.955 0-4.558.702-5.783 1.561m55.533 25.551c-2.557.98-2.748 1.453-2.728 6.721.025 6.505 2.61 13.095 6.092 15.534 2.636 1.846 10.947 2.206 13.941.603 3.036-1.624 4.945-6.398 4.945-12.365 0-4.352-.497-6.071-2.392-8.274-2.164-2.516-3.093-2.805-9.75-3.028-4.047-.136-8.595.228-10.108.809M215 63.794c-3.025 1.38-18.313 8.317-33.974 15.415-15.66 7.098-28.626 13.057-28.811 13.243-.186.186 1.145 2.028 2.958 4.093l3.297 3.755-5.418-.521c-4.765-.458-5.193-.355-3.544.85 3.339 2.442 7.809 1.619 14.086-2.593 4.468-3 8.753-4.704 17.602-7 6.433-1.67 13.048-3.036 14.699-3.036 2.998 0 3.001.005 1.652 3.25-.744 1.787-1.656 5.95-2.027 9.25-.372 3.3-1.368 8.185-2.213 10.856-1.41 4.45-1.995 5.058-7.006 7.275l-5.469 2.418.702 4.225c.825 4.963 2.749 9.009 5.675 11.935l2.103 2.103-3.486-.565-3.486-.566 1.843 3.724c1.013 2.048 2.176 6.395 2.584 9.66.408 3.264 1.19 5.84 1.737 5.723.548-.116 2.304-2.527 3.903-5.357 2.52-4.459 2.971-6.467 3.384-15.039.262-5.44.817-9.892 1.233-9.892 1.327 0 5.045 9.005 6.131 14.851 1.34 7.208.397 15.27-2.532 21.64-2.753 5.988-7.445 11.791-9.039 11.18-.63-.242-1.652.633-2.271 1.945-1.359 2.88-.636 2.983 2.687.384 3.425-2.679 4.694-2.493 6.474.95.839 1.623 1.526 3.105 1.526 3.293 0 .188-2.363.323-5.25.3-3.981-.033-5.25.314-5.25 1.433 0 .812 1.17 1.887 2.6 2.39 2.331.82 4.013-.138 16.25-9.254L222 165.943V114.03c0-28.551-.338-52.099-.75-52.328-.412-.229-3.225.712-6.25 2.092m-35.99 30.821c-8.955 2.646-11.145 4.022-14.149 8.885-1.717 2.779-1.854 2.832-1.857.724-.004-2.232-.064-2.244-3.168-.639-2.402 1.242-4.507 1.473-8.75.959-3.072-.372-6.711-.637-8.086-.59-13.32.461-18.938.974-21.397 1.954l-2.897 1.154 4.448 2.82c2.518 1.597 5.899 5.084 7.795 8.038 3.555 5.54 5.006 5.427 5.036-.393.015-2.927.038-2.939 1.514-.832.824 1.176 2.063 3.864 2.754 5.972 1.712 5.227 3.789 4.848 5.908-1.076 2.272-6.348 3.834-7.986 3.854-4.041.009 1.622.413 3.578.899 4.346.682 1.076 1.254.679 2.503-1.735 2.385-4.612 7.98-9.822 13.616-12.678 4.334-2.196 4.967-2.301 4.967-.829 0 .929-.745 2.511-1.655 3.517-.934 1.032-1.167 1.829-.535 1.829 1.789 0 8.14-6.009 9.934-9.398l1.641-3.102 1.001 2.75c1.226 3.371 1.972 3.454 3.376.373.596-1.307 2.458-3.942 4.138-5.856 4.909-5.592 2.417-6.084-10.89-2.152m-45.012 5.931c-2.409 1.334-2.42 1.384-.307 1.419 1.205.019 2.488-.445 2.85-1.032 1.066-1.724.132-1.867-2.543-.387m51.012 5.942c-.701.845-2.003 2.992-2.892 4.772-1.383 2.767-2.31 3.333-6.389 3.908-6.726.948-10.427 3.438-16.673 11.219l-5.444 6.782-4.556-.669-4.556-.668 2.208 2.084c2.27 2.142 4.888 2.628 6.982 1.297.654-.416 3.354-3.635 6-7.154 6.262-8.33 8.528-9.883 16.224-11.123 8.569-1.38 9.782-2.18 10.595-6.99.785-4.648.341-5.675-1.499-3.458m-71.415 3.359c-.321.519.153 1.226 1.054 1.572 2.21.848 2.727.138.964-1.325-.855-.71-1.67-.81-2.018-.247M103 114.988c0 .557.338 1.015.75 1.018 4.193.032 12.921 2.336 15.318 4.042 1.656 1.18 4.854 4.689 7.106 7.798 2.252 3.11 4.795 6.217 5.651 6.904 2.331 1.871 5.629 1.511 7.763-.848l1.899-2.098-4.625.694c-4.481.672-4.713.578-7.493-3.049-6.338-8.268-9.677-11.397-13.683-12.821-5.65-2.01-12.686-2.919-12.686-1.64m-19 7.927c-5.775 2.653-19.275 8.764-30 13.579-10.725 4.816-19.831 9.262-20.235 9.881-.404.619-.734 4.95-.734 9.625s.33 8.985.734 9.578c.404.593 10.41 8.264 22.235 17.048a74415.983 74415.983 0 0 1 46.708 34.73l25.208 18.76 8.792-6.63c6.339-4.781 8.82-7.266 8.891-8.909.054-1.253.418-2.796.809-3.428.937-1.516-.678-1.479-2.208.051-.933.933-1.467.933-2.4 0-1.903-1.903-2.486-1.42-2.031 1.682.233 1.584-.07 3.186-.673 3.559-.603.372-1.096.054-1.096-.708 0-1.679-4.146-5.733-5.864-5.733-.679 0-2.641-.727-4.359-1.615l-3.123-1.615 7.173-3.323c3.945-1.827 7.173-3.544 7.173-3.815 0-.732-5.168.887-8.759 2.743-3.933 2.034-6.187 2.051-9.018.068-2.555-1.789-3.014-6.542-.808-8.373 1.051-.872 1.188-1.969.531-4.258-1.193-4.16-2.345-5.087-1.518-1.221.469 2.194.213 3.462-.884 4.372-.849.705-1.551 2.464-1.559 3.909-.017 3.062-1.98 7.304-3.631 7.848-.73.24-1.402-1.825-1.851-5.693-.556-4.792-.362-6.593.919-8.549 3.389-5.172-3.508-.723-7.569 4.883L102 205.3l.006-5.9c.004-3.245.629-7.093 1.39-8.551l1.383-2.652-5.824.134c-5.332.123-9.019-1.041-6.347-2.004 6.277-2.261 5.16-5.751-1.631-5.099l-4.763.458 1.018-2.923c1.247-3.576 3.28-4.496 5.555-2.513 5.091 4.437 5.872 3.266.97-1.452-9.41-9.055-13.217-20.55-10.912-32.947C83.98 135.745 87.669 127 89.11 127c.49 0 .89 3.293.89 7.318 0 8.033 2.135 16.653 5.188 20.944 2.338 3.285 3.812 2.753 3.812-1.378 0-4.399 2.06-12.127 3.756-14.09 1.363-1.577 1.184-1.661-2.391-1.113l-3.865.592 2.628-2.886c3.43-3.769 4.489-5.976 5.346-11.15.692-4.177.634-4.294-2.852-5.75-5.057-2.113-5.932-1.943-17.622 3.428m33.635 4.403c-1.339 5.334 3.253 10.307 7.205 7.802 1.057-.67.845-1.353-1-3.235-1.287-1.312-3.056-3.489-3.931-4.838l-1.59-2.453-.684 2.724m47.478.999c-1.248 2.019-3.021 4.115-3.941 4.659-1.467.866-1.488 1.112-.172 2.004 2.192 1.487 4.033.862 6.262-2.126 1.559-2.091 1.779-3.231 1.047-5.427l-.927-2.781-2.269 3.671m-52.913.883c-.66.66-1.2 2.087-1.2 3.171 0 1.084-.62 2.682-1.377 3.55-.757.869-2.331 3.77-3.497 6.449-1.634 3.755-1.76 4.571-.55 3.567.864-.717 2.446-3.021 3.517-5.12 1.254-2.457 2.644-3.817 3.903-3.817 1.611 0 1.806-.395 1.107-2.25-.466-1.238-.47-3.262-.008-4.5.915-2.45.008-2.953-1.895-1.05m59.705 1.05c.462 1.238.458 3.262-.008 4.5-.692 1.836-.502 2.25 1.033 2.25 1.168 0 2.868 1.685 4.487 4.448 1.434 2.447 3.04 4.716 3.569 5.043 1.164.72-3.369-9.274-4.903-10.808-.595-.595-1.083-2.028-1.083-3.183 0-2.087-1.699-4.5-3.168-4.5-.422 0-.389 1.012.073 2.25m-85.737 6.25c-2.61 9.021-.782 21.121 4.298 28.452 3.09 4.458 12.69 11.079 13.321 9.187.305-.914.721-.835 1.564.297 1.199 1.61 11.198 3.961 12.754 2.999.492-.304.895-1.551.895-2.772 0-1.22.659-3.159 1.465-4.309 1.952-2.787 1.149-3.346-4.882-3.398-15.058-.13-24.2-9.147-27.004-26.637l-1.253-7.819-1.158 4m111.076 3.734a1246.2 1246.2 0 0 0-1.451 9.266c-.161 1.1-.522 2.225-.802 2.5-.28.275-1.589 2.116-2.91 4.09-4.432 6.628-12.729 10.789-21.664 10.866-6.031.052-6.834.611-4.882 3.398.806 1.15 1.465 3.089 1.465 4.309 0 2.87 1.086 3.47 4.897 2.708 1.933-.387 3.109-1.234 3.118-2.246.013-1.316.182-1.362.891-.243 1.248 1.971 6.926.704 11.901-2.656 9.353-6.316 13.784-16.115 12.977-28.694-.694-10.806-2.129-12.144-3.54-3.298m-56.437-3.984c-1.049.832-1.963 4.392-2.733 10.644-1.021 8.282-2.581 13.943-3.567 12.942-.181-.185.107-2.733.641-5.664 1.702-9.337.419-10.082-2.019-1.172-1.332 4.868-3.459 9.931-4.978 11.849-7.281 9.199-7.615 11.162-2.791 16.429 1.848 2.017 3.123 3.905 2.834 4.195-.29.29-1.915.541-3.611.559-2.777.028-2.909.163-1.333 1.36.963.731 1.757 2.404 1.765 3.718.009 1.315.452 3.065.985 3.89.715 1.106.973.448.985-2.509.011-2.871.565-4.353 1.95-5.218 1.639-1.024 1.982-.924 2.25.655.276 1.635.638 1.508 2.95-1.032L136.77 184h-3.431c-4.396 0-8.339-3.725-8.339-7.878 0-3.294 3.776-8.407 8.193-11.093 1.527-.929 3.814-3.228 5.082-5.109 1.561-2.316 3.086-3.42 4.725-3.42 1.639 0 3.164 1.104 4.725 3.42 1.268 1.881 3.555 4.18 5.082 5.109 4.417 2.686 8.193 7.799 8.193 11.093 0 4.153-3.943 7.878-8.339 7.878h-3.431l2.635 2.896c2.338 2.57 2.671 2.682 2.954 1.002.26-1.54.68-1.701 2.25-.861 1.434.768 1.935 2.117 1.946 5.248.012 3.09.274 3.815.985 2.715.533-.825.976-2.575.985-3.89.008-1.314.802-2.987 1.765-3.718 1.627-1.235 1.597-1.331-.418-1.36-4.838-.071-5.154-.975-1.674-4.774 4.804-5.245 4.467-7.217-2.809-16.409-1.519-1.918-3.646-6.981-4.978-11.849-2.438-8.91-3.721-8.165-2.019 1.172.534 2.931.822 5.479.641 5.664-.998 1.012-2.553-4.698-3.528-12.952C146.941 138.225 145.594 135 143 135c-.34 0-1.327.563-2.193 1.25m-22.307 3.819c-5.26 1.9-8.765 3.837-10.233 5.656-2.598 3.217-4.892 12.272-3.785 14.939.582 1.402 1.041.655 1.945-3.164.65-2.75 1.66-5.849 2.244-6.887.949-1.687 1.11-1.557 1.519 1.227.251 1.712.093 3.686-.351 4.387-1.045 1.646-1.083 8.773-.046 8.773.436 0 1.341-2.051 2.011-4.559 2.125-7.945 9.213-12.111 12.535-7.368 1.826 2.607 3.2.803 1.628-2.136-.903-1.687-.783-2.483.608-4.02 2.175-2.403 1.707-2.393-4.604.094-6.428 2.534-5.775 1.176.948-1.973 4.841-2.268 6.916-4.878 5.587-7.029-.801-1.296-.607-1.336-10.006 2.06m38.994-2.06c-1.329 2.151.746 4.761 5.587 7.029 6.723 3.149 7.376 4.507.948 1.973-6.311-2.487-6.779-2.497-4.604-.094 1.391 1.537 1.511 2.333.608 4.02-1.572 2.939-.198 4.743 1.628 2.136 3.322-4.743 10.41-.577 12.535 7.368.67 2.508 1.575 4.559 2.011 4.559 1.056 0 1.017-6.683-.05-8.816-.464-.926-.549-2.809-.189-4.184.65-2.482.663-2.485 1.811-.375.637 1.168 1.459 4.009 1.827 6.312.416 2.601 1.024 3.833 1.606 3.251 1.409-1.409-.816-11.823-3.258-15.253-1.15-1.614-2.176-2.935-2.28-2.935-.105 0-4.008-1.35-8.674-3-9.868-3.49-8.727-3.251-9.506-1.991m-42.051 20.214c.856 1.222 1.557 3.247 1.557 4.5 0 1.357.606 2.277 1.5 2.277.944 0 1.5-.952 1.5-2.566 0-3.681-1.751-6.434-4.092-6.434-1.889 0-1.92.145-.465 2.223m51.592-.289c-1.566 2.926-1.293 7.066.465 7.066.894 0 1.5-.92 1.5-2.277 0-1.253.701-3.278 1.557-4.5 1.455-2.078 1.424-2.223-.465-2.223-1.112 0-2.487.87-3.057 1.934m-33.464 12.434c-3.833 3.616-4.669 7.475-2.084 9.621 1.765 1.465 4.877.55 4.221-1.24-.252-.687-.964-1.136-1.583-.999-2.043.454-1.17-3.825 1.494-7.317 3.322-4.356 2.529-4.381-2.048-.065m16.679-.185c2.851 3.819 3.681 8.003 1.5 7.567-.687-.137-1.25.425-1.25 1.25 0 2.044 3.529 1.901 4.853-.197 1.588-2.518-.255-6.617-4.353-9.684l-3.5-2.619 2.75 3.683m32.406 20.829 1.502 3.012 3.128-2.227 3.127-2.227-2.456-.685c-1.352-.377-3.435-.73-4.63-.785-2.086-.096-2.113.021-.671 2.912m-17.484 4.238c-.641 2.355-.511 3.685.472 4.829.746.868 1.356 2.556 1.356 3.75s.45 2.171 1 2.171c1.592 0 1.157-5.625-.544-7.037-1.059-.878-1.348-2.176-.921-4.122.863-3.928-.275-3.586-1.363.409m-42.64 2c.38 1.787 1.385 4.037 2.234 5 1.394 1.58 1.389 1.75-.052 1.75-.878 0-1.898-.489-2.268-1.087-.467-.756-.99-.769-1.716-.043-1.78 1.78 1.192 4.361 4.196 3.646 3.818-.909 12.979-5.828 13.531-7.266.72-1.873-.475-4.25-2.136-4.25-.999 0-1.362.845-1.143 2.663.177 1.464-.205 2.84-.849 3.057-.73.246-.98-.339-.663-1.55.656-2.51-1.077-3.585-2.675-1.659-.934 1.126-.956 1.826-.088 2.872.889 1.071.785 1.523-.459 2-2.236.858-2.443.791-1.938-.633.412-1.162-4.749-7.75-6.071-7.75-.327 0-.283 1.463.097 3.25m37.143.296c-1.554 1.87-2.54 3.863-2.191 4.428.731 1.183.318 1.271-1.928.409-1.244-.477-1.348-.929-.459-2 .868-1.046.846-1.746-.088-2.872-1.598-1.926-3.331-.851-2.675 1.659.317 1.211.067 1.796-.663 1.55-.644-.217-1.026-1.593-.849-3.057.219-1.818-.144-2.663-1.143-2.663-1.709 0-2.849 2.394-2.087 4.38.512 1.333 12.983 7.62 15.115 7.62 1.869 0 3.716-2.977 2.563-4.13-.726-.726-1.249-.713-1.716.043-.37.598-1.39 1.087-2.268 1.087-1.441 0-1.446-.17-.052-1.75 1.747-1.981 3.363-8.288 2.095-8.178-.456.04-2.1 1.603-3.654 3.474m14.122-.552c1.837 3.228 2.688 3.648 3.788 1.869.392-.635-.355-1.95-1.691-2.978-3.432-2.639-4.045-2.315-2.097 1.109m-34.061-1.396c-.802.801.247 3.402 1.371 3.402.491 0 .893-.9.893-2 0-1.949-1.061-2.606-2.264-1.402M144 197c0 1.1.402 2 .893 2 1.124 0 2.173-2.601 1.371-3.402-1.203-1.204-2.264-.547-2.264 1.402m3 8.549c0 .609 8.128 4.813 10.914 5.645 4.705 1.405 4.285-.51-.528-2.409-6.261-2.471-10.386-3.756-10.386-3.236m3.405 12.597c-1.895 2.134-1.893 2.139.345.964 1.238-.649 2.25-1.615 2.25-2.145 0-1.421-.479-1.203-2.595 1.181" fill="#1976D2" fill-rule="evenodd"/></svg>